/* XPM */
static char *result[] = {
/* columns rows colors chars-per-pixel */
"32 32 83 1 ",
"  c #05263B",
". c #117ABE",
"X c #0A4164",
"o c #128CD5",
"O c #1381C2",
"+ c #0B7CBC",
"@ c #1492DC",
"# c #055888",
"$ c #0975B9",
"% c #0E78BC",
"& c #0979BD",
"* c #0673B6",
"= c #0F7ABE",
"- c #0877BB",
"; c #107ABE",
": c #0A76BA",
"> c #0F78BC",
", c #0D77BA",
"< c #118BD4",
"1 c #0E78BB",
"2 c #0570B2",
"3 c #0F79BC",
"4 c #0673B7",
"5 c #0C7CC1",
"6 c #0A4062",
"7 c #0F1214",
"8 c #232323",
"9 c #222222",
"0 c #1C1F21",
"q c #0E1012",
"w c #062E48",
"e c #111416",
"r c #AA6331",
"t c #13171A",
"y c #B57C53",
"u c #AF7144",
"i c #212426",
"p c #1179BD",
"a c #137ABF",
"s c #1279BE",
"d c gray17",
"f c #093E60",
"g c #0979BE",
"h c #127ABF",
"j c #093C5C",
"k c gray13",
"l c #2A2C2D",
"z c #955629",
"x c #1B2023",
"c c #E8BF1D",
"v c #091217",
"b c #1E1E1E",
"n c #202020",
"m c gray12",
"M c gray15",
"N c #0F3044",
"B c #05273C",
"V c #1E282E",
"C c gray3",
"Z c #090909",
"A c #2A2A2A",
"S c #1F2A30",
"D c #148FD8",
"F c #0B7CC1",
"G c #05283E",
"H c #0E0E0E",
"J c #1D1E1F",
"K c #0471B4",
"L c gray16",
"P c #1D1E1E",
"I c #0A4063",
"U c #05263C",
"Y c #1A2429",
"T c #1C2022",
"R c #138BD2",
"E c #172127",
"W c #1F2020",
"Q c #1D2023",
"! c #1C252B",
"~ c #0C78BA",
"^ c #1694DE",
"/ c #0C7FC5",
"( c #0A7ABF",
/* pixels */
"                                ",
"   .XXX XXXXX oO+++++@ ####XXX$ ",
"  %XXXX XXXXX &O+++++@ ###XXXX$ ",
" .XXXXX XXXXX *O+++++@ =XXXXXX$ ",
" XXXXXX XXXXX -O+++++@ XXXXXX;: ",
" >>>>>> >>>>, <@@@@@@< ,>>>>>>> ",
"                                ",
" XXX12,XXXXX34444 % #####5=  XX ",
" XXXX >XXXXXX6XXX6X XXXXXXX  XX ",
" XXXX >XXXXXX78990qwXXXXXXX: XX ",
" $$$X >XXXXXerrrrrrrXXXXXXX; XX ",
"           trryyyyuri        XX ",
" @ paaaas   drrrrrruf> OOggg XX ",
" @ XXhXhXXXXjdkkkkkkd> O++++ ## ",
" @ XXXXXXXXlyyuuurrkzzxO++++ ## ",
" @ XXXXXXXXyycuuuurrrzzO++++ ## ",
"          vyyuuubnmMrzzN++++    ",
" XXXXXX:#BVyuuMCZmArrrzSD@@@ FF ",
" XXXXXX;%GmruuuHHuurrrzJB    KK ",
" XXXXXXXX 9ruuMCZmLrrzzPXXXXXXX ",
"         Gkzzruun99Lzzz9IXXXXXX ",
" ++ ###XXUYzrruuurrrzzzT>>>>>>> ",
" ++ XXXXX RzzrrrrrrzzzzB        ",
" ++ #XXXX @XEWbbnkmbQ!~######## ",
" ++ #XXXX @XXIX  6IXX##XX###XX. ",
" ++ XXXXX @XXXX  XXXXXXXXXXXX%  ",
" ++ XXXXX @XXXX  XXXXXXXXXXX.   ",
" ++ XXXXX                       ",
"  + #XXXX >:    :XXXX#### @++^/ ",
" (+ ##XX# >XXXXXXXXXXXX## @++++ ",
" #( ###XX >XXXXXXXXXXXX## @++++ ",
"                                "
};
