/* XPM */
static char *eb0f2ecf1dcc435d895bc6aff448be60T92PcG6221aafxMR[] = {
/* columns rows colors chars-per-pixel */
"32 32 51 1 ",
"  c gray3",
". c #090909",
"X c #0B0B0B",
"o c #0E0E0E",
"O c gray6",
"+ c #111111",
"@ c #151515",
"# c gray10",
"$ c #1B1B1B",
"% c #1D1D1D",
"& c #1E1E1E",
"* c gray12",
"= c #05263B",
"- c #202020",
"; c gray13",
": c #222222",
"> c #232323",
", c gray15",
"< c #2A2A2A",
"1 c gray17",
"2 c gray18",
"3 c #313131",
"4 c #0A4164",
"5 c #955629",
"6 c #AA6331",
"7 c #AF7144",
"8 c #B57C53",
"9 c #E8BF1D",
"0 c #055888",
"q c #0570B2",
"w c #0471B4",
"e c #0673B6",
"r c #0975B9",
"t c #0877BB",
"y c #0D77BA",
"u c #0E78BB",
"i c #0979BE",
"p c #0E78BC",
"a c #0F78BC",
"s c #0B7CBC",
"d c #1179BD",
"f c #1279BE",
"g c #117ABE",
"h c #137ABF",
"j c #0B7CC1",
"k c #0C7CC1",
"l c #0C7FC5",
"z c #1381C2",
"x c #118BD4",
"c c #128CD5",
"v c #1492DC",
/* pixels */
"================================",
"===g444=44444=czsssssv=0000444r=",
"==p4444=44444=azsssssv=0004444r=",
"=g44444=44444=ezsssssv=g444444r=",
"=444444=44444=yksspssv=444444gr=",
"=pygpgy=aaaaa=cvvvvvvc=sgygayyg=",
"================================",
"=444yqy444O&:::;%oy=00000ka==44=",
"=4444=a44+666666666O4444444==44=",
"=4444=a4O67999999976O444444r=44=",
"=rrr4=g4@66788888767:444444g=44=",
"=========1666666667:=========44=",
"=v=ghhhhg=1;;;;;&-:51g=zjjss=44=",
"=v=44g4k428877766>555&=zasss=00=",
"=v=444441888777666-655-lssss=00=",
"=v=4444$889777777666655#ssss=00=",
"======X5887777*%&-,66555Opss====",
"=44444#987777#O776626655$vvv=kj=",
"=44444*68777, .#&1666655-====qe=",
"=44444*667777oO777666655%444444=",
"======>56777,..#&1666555%444444=",
"=ps=00*566677#O776636555&aygpsy=",
"=ss=44>5556777*;:>,65555>=======",
"=ss=94#55666777766665555%000000=",
"=ss=0441556666666655555*400044g=",
"=ss94494%5555556655555*444444a==",
"=ss=44444#*%%*;*-*%*%*444444g===",
"=ss=44949=======================",
"==s=04444=ps===9t44440000=vspvz=",
"=ss=00440=g49444444444400=vssss=",
"=0k=00044=p44444444444400=vssss=",
"================================"
};
