/* XPM */
static char *_cac84ffb93b4c75a455588a116e024fihWU4YNf0P8QHG5j[] = {
/* columns rows colors chars-per-pixel */
"32 32 45 1 ",
"  c #020202",
". c #040404",
"X c gray2",
"o c #070707",
"O c gray3",
"+ c #090909",
"@ c #0B0B0B",
"# c gray6",
"$ c #101010",
"% c #111111",
"& c gray7",
"* c #131313",
"= c gray8",
"- c #151515",
"; c #161616",
": c gray9",
"> c #181818",
", c #191919",
"< c gray11",
"1 c #1D1D1D",
"2 c #1E1E1E",
"3 c gray12",
"4 c #05263B",
"5 c #202020",
"6 c gray13",
"7 c #0A4164",
"8 c #055888",
"9 c #0570B2",
"0 c #0471B4",
"q c #0673B6",
"w c #0975B9",
"e c #0877BB",
"r c #0D77BA",
"t c #0E78BB",
"y c #0979BD",
"u c #0E78BC",
"i c #0F78BC",
"p c #0B7CBC",
"a c #117ABE",
"s c #0B7CC1",
"d c #0C7CC1",
"f c #1381C2",
"g c #128CD5",
"h c #1492DC",
"j c #1694DE",
/* pixels */
"44444444444444444444444444444444",
"444a7774777774gfyuppph48888777w4",
"44u77774777774yfppppph48887777w4",
"4a777774777774qfppppph4a777777w4",
"47777774777774wfppppph4777777aw4",
"4urauar4iii#*======&@#4tutautua4",
"444444444+#,352-2552-,+444444444",
"4777r9r7#,-,365,5662>2=X8su44774",
"477774r@&--2,22-262,66-&+7744774",
"477774+*--262--=---2662-&+7w4774",
"4www7X&-2,22,------,222--&+a4774",
"4444 &-266---353622-,-,222&X4774",
"4h4aX*-,22--566666622-2662&X4774",
"4h47+-22,--2665666666-,22,-+4884",
"4h4X&2662--562-,22662----22& 884",
"4h4X*2332*-55,--,,-66--2262-X884",
"444.&-,-:--2622222262---,22& 444",
"477X-2562--56:,--,,26--22,,& ds4",
"477 &2662--2652522662-,2622& qq4",
"4777+=--,---26666662--2666-&X774",
"4444+&-222---265622--,2662-X7774",
"4yp4X&-25,22,------,22,22-& tua4",
"4pp47+&-,2662-=----2662,-&+44444",
"4pp487X#-26652,262-2622-&+888884",
"4pp4877X&,262,262:--2:-&X88877u4",
"4pp47777+,-,2-265--&--&o77777t44",
"4pp477777+,,-&&&&&&-2:@X7777a444",
"4pp4777774X+ . X ...Oo 444444444",
"44p4877774uw4444e777788884hpyjf4",
"4yp4887784u777777777777884hpppp4",
"48s4888774u777777777777884jpppp4",
"44444444444444444444444444444444"
};
