/* XPM */
static char *_2fb6810d3234975927d14efa44528acwzSMQ0zxJJlNvDxh[] = {
/* columns rows colors chars-per-pixel */
"32 32 24 1 ",
"  c #05263B",
". c #0A4164",
"X c #0BA927",
"o c #055888",
"O c #0570B2",
"+ c #0673B6",
"@ c #0673B7",
"# c #0975B9",
"$ c #0D77BA",
"% c #0E78BB",
"& c #0979BD",
"* c #0E78BC",
"= c #0F78BC",
"- c #0B7CBC",
"; c #117ABE",
": c #0B7CC1",
"> c #0C7CC1",
", c #0C7FC5",
"< c #16D49D",
"1 c #00ECA8",
"2 c #1381C2",
"3 c #128CD5",
"4 c #1492DC",
"5 c #1694DE",
/* pixels */
"                                ",
"   ;... ..... 32&*---4 oooo...# ",
"  *.... ..... &2-----4 ooo....# ",
" ;..... ..... @2-----4 *......# ",
" ...... ....1 #2-----4 ......;# ",
" *$;*;$ $;==$ 34444143 %%;**;%* ",
"         <<<                    ",
" ...$O  <11<< @@+ * oo1oo:; 1.. ",
" .... <<11XX< .1..     ..     . ",
" .... <11XXXX<    <<<<<  <<<<<  ",
" ### <<1XXXXXX<<<<XXXXX<<<X<<<  ",
"     <1XXXXXXXXXXXXXXXXXXXX<< . ",
" 4 ; <1XXXXXXXXXXXXXXXXXXXX<< . ",
" 4 . <<1XXXXXXXXXXXXXXXXXXX< oo ",
" 4 . <11XXXXXXXXXXXXXXXXXX1< oo ",
" 4   <11XXXXXXXXXXXXXXXXXX<1 o1 ",
"    <<11XXXXXXXXXXXXXXXXXX11    ",
" ... <<1XXXXXXXXXXXXXXXXXX11 >: ",
" ... <<XXXXXXXXXXXXXXXXXXX1< 1+ ",
" .... <<XXXXXXXXXXXXXXXXXX1< .. ",
"      <<XXXXXXXXXXXXXXXXX11< .. ",
" *- oo <<XXXXXXXXXXXXXXXX1< %%* ",
" -- . <<<XXXXXXXXXXXXXXXX<      ",
" --  <<XXXXXXXXXXXXXXXXX1< oooo ",
" -- <<XXXXXXXXXXXXXXXXXX1< o..; ",
" -- <XXXXXXXXXXXXXXXXXX11< ..%  ",
" -- <<<<<XXXX11XXXXXXXX1< ..;   ",
" --    <<<1111111XXXXX11<       ",
"  * o..  <<<<1<<<<<XXXX1< 4--42 ",
" >- oo..o  <<<<<   <<<<<  4---- ",
" o& ooo.. >     ...     o 4---- ",
"                                "
};
