/* XPM */
static char *b56e19bd9b8b48a8ac14d23f95795dafWrEmXB1ls39bhjHS[] = {
/* columns rows colors chars-per-pixel */
"32 32 80 1 ",
"  c None",
". c black",
"X c #010000",
"o c #020101",
"O c #060404",
"+ c #0A0706",
"@ c #0F0B09",
"# c #1C110E",
"$ c #1D1411",
"% c #1F1411",
"& c #1F1512",
"* c #201512",
"= c #201613",
"- c #211613",
"; c #221613",
": c #221714",
"> c #231714",
", c #221815",
"< c #231815",
"1 c #241916",
"2 c #251A17",
"3 c #271C19",
"4 c #271D1A",
"5 c #281D1A",
"6 c #2B201D",
"7 c #2B211E",
"8 c #2E2421",
"9 c #322725",
"0 c #342A27",
"q c #3E3532",
"w c #403734",
"e c #413735",
"r c #433A37",
"t c #483F3D",
"y c #4F4644",
"u c #544C4A",
"i c #574E4C",
"p c #605856",
"a c #625A58",
"s c #645C5A",
"d c #655E5C",
"f c #665E5C",
"g c #6B6462",
"h c #6C6462",
"j c #746D6B",
"k c #7B7472",
"l c #857F7D",
"z c #898381",
"x c #938D8C",
"c c #9D9896",
"v c #A19D9B",
"b c #A49F9E",
"n c #A4A09E",
"m c #A7A3A1",
"M c #A9A5A4",
"N c #ABA6A5",
"B c #ACA8A7",
"V c #B2AEAD",
"C c #B6B2B1",
"Z c #B7B4B3",
"A c #BFBCBB",
"S c #C0BDBC",
"D c #C3C0BF",
"F c #CBC8C7",
"G c #CCC9C9",
"H c #CFCDCC",
"J c #D2CFCF",
"K c #D3D1D0",
"L c #DDDCDB",
"P c #DEDCDC",
"I c #DEDDDC",
"U c #E4E3E2",
"Y c #E5E3E3",
"T c #F0EFEF",
"R c gray94",
"E c #F4F3F3",
"W c #F6F5F5",
"Q c gray97",
"! c gray98",
"~ c #FDFDFD",
/* pixels */
"              <<<               ",
"              <<<               ",
"            <<<<<<<<            ",
"            <<<<<<<<            ",
"               <<               ",
"             <<<<<<             ",
"         <<<<<<<<<<<<<<         ",
"        <<<<<<<<<<<<<<<<<       ",
"       <<<<<<<<:<<:::<<<<       ",
"       <<*:3<:<23<<87<:<<<      ",
"      <<2svZnr%pCqqSFmu:<<      ",
"      <<2MWmWz#xTrs!vUA5<<      ",
"      <<%pWLRV6ML0z~JHj<<<      ",
"      <<:8GKkYlFF5BLy0:<<<      ",
"      <<<*hc0trhf1ip2:<<<<      ",
"      <<<<<<:*%%::%:<<<<<<      ",
"       <<<<<<<<<:1:1<<<<<<      ",
"       <<<<<<<<<::1:<<<<<<      ",
"    <  <<<<<<<<<1::1<<<<<<      ",
"   <<< <<<<<<<<*&:1:<<<<<<<<    ",
"   <<< <<<<<<<<@O&<<<<<<< <<<<  ",
"  <<<<  <<<<<<<+o%<<<<<<< <<<   ",
"               oo               ",
"               oo               ",
"               oo               ",
"               oo               ",
"               oo               ",
"               oo               ",
"               oo               ",
"               oo               ",
"               oo               ",
"               oo               "
};
