/* XPM */
static char *e901d0eca3e34d4385f3ab79924699ebEQtY7AxyvG6XSjxo[] = {
/* columns rows colors chars-per-pixel */
"32 32 77 1 ",
"  c #05263B",
". c #117ABE",
"X c #0A4164",
"o c #128CD5",
"O c #1381C2",
"+ c #0B7CBC",
"@ c #1492DC",
"# c #055888",
"$ c #0975B9",
"% c #0E78BC",
"& c #0979BD",
"* c #0673B6",
"= c #0F7ABE",
"- c #00ECA8",
"; c #0877BB",
": c #107ABE",
"> c #0A76BA",
", c #0F78BC",
"< c #0D77BA",
"1 c #118BD4",
"2 c #16D49D",
"3 c #0E78BB",
"4 c #0570B2",
"5 c #0673B7",
"6 c #0C7CC1",
"7 c #6CBD89",
"8 c #DF7070",
"9 c #27CF98",
"0 c #D77771",
"q c #38CA94",
"w c #65BD8B",
"e c #CE7E70",
"r c #48C490",
"t c #57BF8C",
"y c #74B485",
"u c #BB8A6E",
"i c #999866",
"p c #D5766E",
"a c #4ABB91",
"s c #D77670",
"d c #50BD8F",
"f c #1179BD",
"g c #56BF8C",
"h c #12E4A3",
"j c #C68470",
"k c #CF7D70",
"l c #4BCC92",
"z c #BA896D",
"x c #B9886C",
"c c #1EDCA0",
"v c #CC7C6E",
"b c #0B7CC1",
"n c #AB7E5E",
"m c #39D497",
"M c #0471B4",
"N c #B18F6C",
"B c #8AAD81",
"V c #23CE9A",
"C c #3CC195",
"Z c #AA7E5E",
"A c #55B58F",
"S c #D2746B",
"D c #CF7E70",
"F c #9D8259",
"G c #D3736C",
"H c #61BD8E",
"J c #908555",
"K c #8C9E85",
"L c #70AE8C",
"P c #2AD59D",
"I c #0EE4A4",
"U c #7EA688",
"Y c #838950",
"T c #B87B63",
"R c #1694DE",
"E c #0C7FC5",
"W c #0A7ABF",
/* pixels */
"                                ",
"   .XXX XXXXX oO+++++@ ####XXX$ ",
"  %XXXX XXXXX &O+++++@ ###XXXX$ ",
" .XXXXX XXXXX *O+++++@ =XXXXXX$ ",
" XXXXXX XXXX- ;O+++++@ XXXXXX:> ",
" ,,,,,, ,,,,< 1@@@@-@1 <,,,,,,, ",
"         222                    ",
" XXX34  2--22 555 % ##-##6= -XX ",
" XXXX 22-7889 X-XX     XX     X ",
" XXXX 2-70880q    22222  22222  ",
" $$$ 22we88880rqtyuu08i22tpa22  ",
"     2-s8888888888888888888d2 X ",
" @ f 2-88888888888888888888g2 X ",
" @ X 22h888888888888888888j9 ## ",
" @ X 2--k88888888888888888l2 ## ",
" @   2--z88888888888888888t- #- ",
"    22--x88888888888888888l-    ",
" XXX 22cv88888888888888888l- bb ",
" XXX 22n888888888888888888m2 -M ",
" XXXX 2288888888888888888N-2 XX ",
"      2288888888888888888B-2 XX ",
" ++ ## 2V8888888888888888B2 ,,, ",
" ++ X 22V888888888888888jq      ",
" ++  2CZ8888888888888888B2 #### ",
" ++ 2AS8888888888888888Dm2 #XX. ",
" ++ 2FG8888888888888888H-2 XX%  ",
" ++ 2222VJ888KLn8888888P2 XX.   ",
" ++    222------IFG888U-2       ",
"  + #XX  2222-2222VYT8SI2 @++RE ",
" W+ ##XX#  22222   22222  @++++ ",
" #W ###XX ,     XXX     # @++++ ",
"                                "
};
