/* XPM */
static char *_c30a930892d4d65d71a56017b0a807awLaVf9HIQSr3YToq[] = {
/* columns rows colors chars-per-pixel */
"32 32 50 1 ",
"  c black",
". c #05263B",
"X c #463930",
"o c #1D5B07",
"O c #0A4164",
"+ c #4B8835",
"@ c #055888",
"# c #20579E",
"$ c #0570B2",
"% c #0471B4",
"& c #0572B5",
"* c #0975B9",
"= c #0D77BA",
"- c #0E78BB",
"; c #0A7ABF",
": c #0E78BC",
"> c #0F78BC",
", c #0B7CBC",
"< c #1179BD",
"1 c #1279BE",
"2 c #107ABE",
"3 c #117ABE",
"4 c #137ABF",
"5 c #006ECD",
"6 c #0B7CC1",
"7 c #0C7CC1",
"8 c #0064D5",
"9 c #3A77C6",
"0 c #0284AE",
"q c #2981A2",
"w c #1381C2",
"e c #128CD5",
"r c #128ED6",
"t c #019FD3",
"y c #1492DC",
"u c #1694DE",
"i c #3FB3D9",
"p c #51ABCC",
"a c #59BEE0",
"s c #A19E9E",
"d c #97A8B4",
"f c #ACF58A",
"g c #A6B7C5",
"h c #EBDDC8",
"j c #FDE3CB",
"k c #FDEEDE",
"l c #CAE5EF",
"z c #F3F3F3",
"x c #FAF8F8",
"c c #FAFAF8",
/* pixels */
"................................",
"...3OOO.OOOOccy0,3xx,y.@@@@OOO*.",
"..:OOOO.OOOOccccccxx,y.@@@OOOO*.",
".3OOOOO.OOOOccccxccx,y.:OOOOOO*.",
".OOOOOO.OOOOcccccccc:u.OOOOOO3*.",
".:=3:3=.333<ccccccccye.---3:3=:.",
"............cccccccc............",
".OOO=$=OOOOOcccxcccc@@@@@73..OO.",
".OOOO.>OOOOfxxxxccccfOOOOOO..OO.",
".OOOO.>OOOffffxxccffffOOOOO*.OO.",
".***O.3OOOffffffffffffOOOOO3.OO.",
"..........t+fff++ff+ft.......OO.",
".y.344443.h++++++++++h.ww;;;.OO.",
".y.OO3O7OOh++++oo+++0h.w,,,,.@@.",
".y.OOOOOOOha+++oo+++0l.w,,,,.@@.",
".y.OOOOOOOhtt++++++tpl.w,,,,.@@.",
"..........hqqttttttppl.w;,,,....",
".OOOOOO*@.h#55555555#l.eyyyy.66.",
".OOOOOO3:.h#88888888#g.......%$.",
".OOOOOOOO.h9899999989d.:OOOOOOO.",
"..........y989O.OO989*.OOOOOOOO.",
".,,.@@@OO.y989O.6w989&.:-=3-::3.",
".,,.OOOOO.y999O...999...........",
".,,.@OOOO.yOjkO.OOkjO76@@@@@@@@.",
".,,.@OOOO.yOjkO..OkjO@@OO@@@OO3.",
".,,.OOOOO.yOjkO..OkjOOOOOOOOO:..",
".,,.OOOOO.yOjkO..OkjOOOOOOOO3...",
".,,.OOOOO...jk....kj............",
"..,.@OOOO.:*zz..*OzzO@@@@.y,;uw.",
".;,.@@OO@.3OsXOOOOXsOOO@@.y,,,;.",
".@;.@@@OO.    OOOO    O@@.y,,,,.",
"................................"
};
