/* XPM */
static char *c090fed2b6ca4dd9a9f7b1d39208badfq2kSI8K2miVPvsDG[] = {
/* columns rows colors chars-per-pixel */
"32 32 51 1 ",
"  c black",
". c #05263B",
"X c #463930",
"o c #0A4164",
"O c #055888",
"+ c #20579E",
"@ c #0570B2",
"# c #0471B4",
"$ c #0673B6",
"% c #0975B9",
"& c #0A76BA",
"* c #0D77BA",
"= c #0E78BB",
"- c #0979BE",
"; c #0E78BC",
": c #0F78BC",
"> c #0F7ABE",
", c #0B7CBC",
"< c #1179BD",
"1 c #1279BE",
"2 c #117ABE",
"3 c #137ABF",
"4 c #006ECD",
"5 c #0B7CC1",
"6 c #0C7CC1",
"7 c #0064D5",
"8 c #3A77C6",
"9 c #0284AE",
"0 c #2981A2",
"q c #12A2A2",
"w c #1381C2",
"e c #118BD4",
"r c #128ED6",
"t c #019FD3",
"y c #1492DC",
"u c #1694DE",
"i c #3FB3D9",
"p c #51ABCC",
"a c #59BEE0",
"s c #A19E9E",
"d c #97A8B4",
"f c #ACF58A",
"g c #A6B7C5",
"h c #EBDDC8",
"j c #FEE2C9",
"k c #FDE3CB",
"l c #FDEEDE",
"z c #CAE5EF",
"x c #F3F3F3",
"c c #FAF8F8",
"v c #FAFAF8",
/* pixels */
"................................",
"...2ooo.ooooccrw,,vc,y.OOOOooo%.",
"..;oooo.oooocccvvvvv,y.OOOoooo%.",
".2ooooo.oooocjccccjv,y.>oooooo%.",
".oooooo.oooojjjjjjjj,y.oooooo2&.",
".;*2;2*.*2<2jj jj jjye.==2;;==;.",
"............jjjjjjjj............",
".ooo*@*ooooojjjjjjjjOOOOO62..oo.",
".oooo.:oooofccjjjjvvfoooooo..oo.",
".oooo.:ooofffcccvvvfffooooo%.oo.",
".%%%o.2oooffffttttffffooooo2.oo.",
"..........tfqtttttttft.......oo.",
".y.233332.hfqtttttttfh.ww---.oo.",
".y.oo2o6oohatttttttt9h.w,,,,.OO.",
".y.ooooooozatttttttt9h.w,,,,.OO.",
".y.oooooooztttttttttih.w,,,,.OO.",
"..........z00ttttttpph.w,,,,....",
".oooooo&O.z+44444444+h.ryyyy.55.",
".oooooo2>.g+77777777+h.......#$.",
".oooooooo.d8788888878h.=ooooooo.",
"..........y878o.oo878$.oooooooo.",
".,,.OOOoo.y878o.55878$.=2;;;;;;.",
".,,.ooooo.y888o...888...........",
".,,.Ooooo.yoklo.ooljo;6OOOOOOOO.",
".,,.Ooooo.yojlo..olkoOOooOOOoo2.",
".,,.ooooo.yoklo..olkooooooooo=..",
".,,.ooooo.yoklo..oljoooooooo2...",
".,,.ooooo...kl....lj............",
"..,.Ooooo.;&xx..&oxxoOOOO.y,=yw.",
".-,.OOooO.2osXooooXsoooOO.y,,,-.",
".O5.OOOoo.    oooo    oOO.y,,,>.",
"................................"
};
